<?xml version="1.0" encoding="utf-8"?>
<!-- Generator: Adobe Illustrator 24.3.0, SVG Export Plug-In . SVG Version: 6.00 Build 0)  -->
<svg version="1.1" id="Layer_1" xmlns="http://www.w3.org/2000/svg" xmlns:xlink="http://www.w3.org/1999/xlink" x="0px" y="0px"
	 viewBox="0 0 64 64" style="enable-background:new 0 0 64 64;" xml:space="preserve">
<style type="text/css">
	.st0{fill:url(#SVGID_1_);}
	.st1{fill:#FFFFFF;}
</style>
<linearGradient id="SVGID_1_" gradientUnits="userSpaceOnUse" x1="32" y1="63.8898" x2="32" y2="-0.1102" gradientTransform="matrix(1 0 0 -1 0 63.8898)">
	<stop  offset="0" style="stop-color:#FBB040"/>
	<stop  offset="1" style="stop-color:#F7941D"/>
</linearGradient>
<path class="st0" d="M32,0L32,0c17.7,0,32,14.3,32,32l0,0c0,17.7-14.3,32-32,32l0,0C14.3,64,0,49.7,0,32l0,0C0,14.3,14.3,0,32,0z"/>
<g>
	<path class="st1" d="M52.2,22.6c-0.4-0.4-0.9-0.6-1.4-0.6h-8.7c-0.5,0-1.1,0.2-1.5,0.6s-0.6,0.9-0.6,1.5c0,0.5,0.2,1.1,0.6,1.5
		s0.9,0.6,1.5,0.6h2.3v14.9c0,0.5,0.2,1.1,0.6,1.5c0.4,0.4,0.9,0.6,1.5,0.6c0.5,0,1.1-0.2,1.5-0.6c0.4-0.4,0.6-0.9,0.6-1.5V26.1h2.3
		c0.5,0,1.1-0.2,1.5-0.6c0.4-0.4,0.6-0.9,0.6-1.5C52.8,23.5,52.6,23,52.2,22.6z"/>
	<path class="st1" d="M37,22h-6.4h-0.2h-0.2c-0.5,0-1.1,0.2-1.5,0.6c-0.4,0.4-0.6,0.9-0.6,1.5v17c0,0.3,0,0.6,0.1,0.8
		c0.1,0.3,0.2,0.5,0.4,0.7c0.2,0.2,0.4,0.4,0.7,0.5c0.3,0.1,0.5,0.2,0.8,0.2s0.6-0.1,0.8-0.2c0.3-0.1,0.5-0.3,0.7-0.5
		c0.2-0.2,0.3-0.4,0.4-0.7s0.1-0.5,0.1-0.8v-5.9H36c0.5,0,1.1-0.2,1.5-0.6s0.6-0.9,0.6-1.5c0-0.5-0.2-1.1-0.6-1.5S36.5,31,36,31
		h-3.7v-4.9H37c0.5,0,1.1-0.2,1.5-0.6c0.4-0.4,0.6-0.9,0.6-1.5c0-0.5-0.2-1.1-0.6-1.5C38.1,22.2,37.6,22,37,22z"/>
	<path class="st1" d="M24,22c-1.1,0-2.1,0.9-2.1,2.1v9.1l-5.5-9.8l0,0c-0.3-0.7-1-1.3-1.9-1.3c-1.1,0-2.1,0.9-2.1,2.1v17
		c0,1.1,0.9,2.1,2.1,2.1s2.1-0.9,2.1-2.1v-9l5.5,10c0.3,0.7,1,1.1,1.8,1.1c1.1,0,2.1-0.9,2.1-2.1v-17C26.1,22.9,25.1,22,24,22z"/>
</g>
</svg>
