<svg id="Layer_1" data-name="Layer 1" xmlns="http://www.w3.org/2000/svg" xmlns:xlink="http://www.w3.org/1999/xlink" width="64" height="64" viewBox="0 0 64 64"><defs><style>.cls-1{fill:url(#linear-gradient);}.cls-2{fill:#fff;fill-rule:evenodd;}</style><linearGradient id="linear-gradient" x1="-90.55" y1="104.38" x2="-91.53" y2="103.41" gradientTransform="matrix(64, 0, 0, -64, 5859, 6681)" gradientUnits="userSpaceOnUse"><stop offset="0" stop-color="#ff7948"/><stop offset="1" stop-color="#ffda15"/></linearGradient></defs><title>ringtones-ico</title><circle class="cls-1" cx="32" cy="32" r="32"/><path class="cls-2" d="M17,26.05V37.73h8.8L33,44V20l-7.2,6.05ZM35,26v1.29a5.39,5.39,0,0,1,5.61,5.21A5.39,5.39,0,0,1,35,37.71V39a6.72,6.72,0,0,0,7-6.5A6.72,6.72,0,0,0,35,26Zm12,6.5C47,38.84,41.89,44,35,44V42.71A10.21,10.21,0,1,0,35,22.3V21C41.89,21,47,26.16,47,32.5Z"/></svg>