<svg id="Layer_1" data-name="Layer 1" xmlns="http://www.w3.org/2000/svg" xmlns:xlink="http://www.w3.org/1999/xlink" width="64" height="64" viewBox="0 0 64 64"><defs><style>.cls-1{fill:url(#linear-gradient);}.cls-2{fill:#fff;fill-rule:evenodd;}</style><linearGradient id="linear-gradient" x1="-90.55" y1="104.38" x2="-91.55" y2="103.39" gradientTransform="matrix(64, 0, 0, -64, 5859, 6681)" gradientUnits="userSpaceOnUse"><stop offset="0" stop-color="#198ec9"/><stop offset="1" stop-color="#00e2ce"/></linearGradient></defs><title>video-clips-ico</title><circle class="cls-1" cx="32" cy="32" r="32"/><path class="cls-2" d="M18,23.42,45,18,46,23l-15.95,3H46V46H18ZM20,32V44H43V32Zm5-8.19L28,26l3-.82L28.38,23ZM31,27H27.94L26,30h3Zm6,0H33.94L32,30h3Zm8,0H41.94L40,30h3ZM31,22.82,34,25l3-.82L34.38,22Zm8-1.27L42,23l3-.55L42.38,21ZM31,34l6,4-6,4Z"/></svg>